<svg width="32" height="32" viewBox="0 0 32 32" fill="none" xmlns="http://www.w3.org/2000/svg">
<rect width="32" height="32" fill="url(#paint0_linear_679_61)"/>
<path d="M15.3754 25C14.4708 25 13.6862 24.8581 13.0215 24.5743C12.3569 24.2905 11.8492 23.7891 11.4985 23.0701C11.1662 22.3511 11 21.3389 11 20.0334V19.0684C11.4431 19.0684 11.8954 19.0684 12.3569 19.0684C12.8185 19.0684 13.2708 19.0684 13.7138 19.0684V20.2604C13.7138 21.0551 13.7877 21.67 13.9354 22.1052C14.0831 22.5403 14.2862 22.8431 14.5446 23.0134C14.8031 23.1647 15.0985 23.2404 15.4308 23.2404C15.9662 23.2404 16.3908 23.0607 16.7046 22.7012C17.0369 22.3228 17.2031 21.6227 17.2031 20.601C17.2031 19.8442 17.0923 19.2766 16.8708 18.8982C16.6492 18.5198 16.2985 18.217 15.8185 17.99C15.3569 17.744 14.7569 17.4697 14.0185 17.1669C13.4092 16.8831 12.8831 16.552 12.44 16.1736C11.9969 15.7952 11.6646 15.3127 11.4431 14.7262C11.2215 14.1397 11.1108 13.4112 11.1108 12.5409C11.1108 11.4814 11.24 10.6205 11.4985 9.95826C11.7754 9.27713 12.2369 8.7852 12.8831 8.48247C13.5292 8.16082 14.3969 8 15.4862 8C16.8892 8 17.96 8.33111 18.6985 8.99332C19.4369 9.63662 19.8062 10.5826 19.8062 11.8314V13.7896C19.3815 13.7896 18.9477 13.7896 18.5046 13.7896C18.08 13.7896 17.6462 13.7896 17.2031 13.7896V12.626C17.2031 11.7557 17.0646 11.1313 16.7877 10.7529C16.5292 10.3556 16.1046 10.1569 15.5138 10.1569C14.9046 10.1569 14.4615 10.3461 14.1846 10.7245C13.9262 11.084 13.7969 11.6611 13.7969 12.4558C13.7969 13.1369 13.9262 13.6667 14.1846 14.0451C14.4431 14.4046 14.7754 14.6884 15.1815 14.8965C15.6062 15.1046 16.04 15.2938 16.4831 15.4641C17.3138 15.7858 17.9877 16.1169 18.5046 16.4574C19.0215 16.798 19.4 17.2521 19.64 17.8197C19.88 18.3873 20 19.1914 20 20.2321C20 21.424 19.8062 22.3701 19.4185 23.0701C19.0492 23.7513 18.5138 24.2432 17.8123 24.5459C17.1292 24.8486 16.3169 25 15.3754 25Z" fill="white"/>
<defs>
<linearGradient id="paint0_linear_679_61" x1="6.32768" y1="9.62149e-06" x2="33.8513" y2="3.40621" gradientUnits="userSpaceOnUse">
<stop stop-color="#ED0233"/>
<stop offset="1" stop-color="#003EB7"/>
</linearGradient>
</defs>
</svg>
